<mxfile host="app.diagrams.net" modified="2023-08-06T09:17:52.548Z" agent="Mozilla/5.0 (Macintosh; Intel Mac OS X 10_15_7) AppleWebKit/537.36 (KHTML, like Gecko) Chrome/114.0.0.0 Safari/537.36" etag="ONPB2fTWqjD4pJ0VkCqI" version="21.6.6" type="device">
  <diagram name="Page-1" id="jHkh-44MvpNl28kj1eMo">
    <mxGraphModel dx="2074" dy="828" grid="1" gridSize="10" guides="1" tooltips="1" connect="1" arrows="1" fold="1" page="1" pageScale="1" pageWidth="827" pageHeight="1169" math="0" shadow="0">
      <root>
        <mxCell id="0" />
        <mxCell id="1" parent="0" />
        <mxCell id="WpmN4PQ7mB17zB6UTpqO-39" value="" style="rounded=0;whiteSpace=wrap;html=1;" vertex="1" parent="1">
          <mxGeometry x="590" y="70" width="190" height="320" as="geometry" />
        </mxCell>
        <mxCell id="WpmN4PQ7mB17zB6UTpqO-6" value="" style="rounded=0;whiteSpace=wrap;html=1;" vertex="1" parent="1">
          <mxGeometry x="230" y="70" width="300" height="320" as="geometry" />
        </mxCell>
        <mxCell id="WpmN4PQ7mB17zB6UTpqO-26" value="" style="edgeStyle=orthogonalEdgeStyle;rounded=0;orthogonalLoop=1;jettySize=auto;html=1;" edge="1" parent="1" source="WpmN4PQ7mB17zB6UTpqO-1" target="WpmN4PQ7mB17zB6UTpqO-12">
          <mxGeometry relative="1" as="geometry" />
        </mxCell>
        <mxCell id="WpmN4PQ7mB17zB6UTpqO-30" value="key=transaction" style="edgeLabel;html=1;align=center;verticalAlign=middle;resizable=0;points=[];" vertex="1" connectable="0" parent="WpmN4PQ7mB17zB6UTpqO-26">
          <mxGeometry x="-0.0154" relative="1" as="geometry">
            <mxPoint x="-10" y="-2" as="offset" />
          </mxGeometry>
        </mxCell>
        <mxCell id="WpmN4PQ7mB17zB6UTpqO-28" value="" style="edgeStyle=orthogonalEdgeStyle;rounded=0;orthogonalLoop=1;jettySize=auto;html=1;" edge="1" parent="1" source="WpmN4PQ7mB17zB6UTpqO-1" target="WpmN4PQ7mB17zB6UTpqO-24">
          <mxGeometry relative="1" as="geometry">
            <mxPoint x="280" y="300" as="targetPoint" />
          </mxGeometry>
        </mxCell>
        <mxCell id="WpmN4PQ7mB17zB6UTpqO-29" value="key=address" style="edgeLabel;html=1;align=center;verticalAlign=middle;resizable=0;points=[];" vertex="1" connectable="0" parent="WpmN4PQ7mB17zB6UTpqO-28">
          <mxGeometry x="0.0462" y="-1" relative="1" as="geometry">
            <mxPoint as="offset" />
          </mxGeometry>
        </mxCell>
        <mxCell id="WpmN4PQ7mB17zB6UTpqO-1" value="Exchange&lt;br&gt;Data.Exchange" style="sketch=0;outlineConnect=0;fontColor=#232F3E;gradientColor=none;strokeColor=#232F3E;fillColor=#ffffff;dashed=0;verticalLabelPosition=bottom;verticalAlign=top;align=center;html=1;fontSize=12;fontStyle=0;aspect=fixed;shape=mxgraph.aws4.resourceIcon;resIcon=mxgraph.aws4.queue;" vertex="1" parent="1">
          <mxGeometry x="250" y="160" width="60" height="60" as="geometry" />
        </mxCell>
        <mxCell id="WpmN4PQ7mB17zB6UTpqO-10" style="edgeStyle=orthogonalEdgeStyle;rounded=0;orthogonalLoop=1;jettySize=auto;html=1;exitX=1;exitY=0.5;exitDx=0;exitDy=0;" edge="1" parent="1" source="WpmN4PQ7mB17zB6UTpqO-2" target="WpmN4PQ7mB17zB6UTpqO-1">
          <mxGeometry relative="1" as="geometry" />
        </mxCell>
        <mxCell id="WpmN4PQ7mB17zB6UTpqO-61" value="" style="edgeStyle=orthogonalEdgeStyle;rounded=0;orthogonalLoop=1;jettySize=auto;html=1;" edge="1" parent="1" source="WpmN4PQ7mB17zB6UTpqO-2" target="WpmN4PQ7mB17zB6UTpqO-60">
          <mxGeometry relative="1" as="geometry" />
        </mxCell>
        <mxCell id="WpmN4PQ7mB17zB6UTpqO-2" value="Node Poller&lt;br&gt;&lt;font color=&quot;#ff9933&quot;&gt;1s rate&lt;/font&gt;" style="rounded=0;whiteSpace=wrap;html=1;" vertex="1" parent="1">
          <mxGeometry x="50" y="160" width="130" height="60" as="geometry" />
        </mxCell>
        <mxCell id="WpmN4PQ7mB17zB6UTpqO-3" value="" style="shape=image;html=1;verticalAlign=top;verticalLabelPosition=bottom;labelBackgroundColor=#ffffff;imageAspect=0;aspect=fixed;image=https://cdn1.iconfinder.com/data/icons/ionicons-fill-vol-2/512/logo-docker-128.png" vertex="1" parent="1">
          <mxGeometry x="40" y="140" width="38" height="38" as="geometry" />
        </mxCell>
        <mxCell id="WpmN4PQ7mB17zB6UTpqO-58" value="" style="edgeStyle=orthogonalEdgeStyle;rounded=0;orthogonalLoop=1;jettySize=auto;html=1;" edge="1" parent="1" source="WpmN4PQ7mB17zB6UTpqO-4" target="WpmN4PQ7mB17zB6UTpqO-45">
          <mxGeometry relative="1" as="geometry" />
        </mxCell>
        <mxCell id="WpmN4PQ7mB17zB6UTpqO-4" value="MongoDB" style="strokeWidth=2;html=1;shape=mxgraph.flowchart.database;whiteSpace=wrap;" vertex="1" parent="1">
          <mxGeometry x="385" y="500" width="80" height="90" as="geometry" />
        </mxCell>
        <mxCell id="WpmN4PQ7mB17zB6UTpqO-7" value="Rabbit MQ Server" style="text;html=1;strokeColor=none;fillColor=none;align=center;verticalAlign=middle;whiteSpace=wrap;rounded=0;" vertex="1" parent="1">
          <mxGeometry x="230" y="40" width="110" height="30" as="geometry" />
        </mxCell>
        <mxCell id="WpmN4PQ7mB17zB6UTpqO-40" value="" style="edgeStyle=orthogonalEdgeStyle;rounded=0;orthogonalLoop=1;jettySize=auto;html=1;entryX=0;entryY=0.5;entryDx=0;entryDy=0;" edge="1" parent="1" source="WpmN4PQ7mB17zB6UTpqO-12" target="WpmN4PQ7mB17zB6UTpqO-34">
          <mxGeometry relative="1" as="geometry" />
        </mxCell>
        <mxCell id="WpmN4PQ7mB17zB6UTpqO-12" value="Transaction.Queue" style="sketch=0;outlineConnect=0;fontColor=#232F3E;gradientColor=none;strokeColor=#232F3E;fillColor=#ffffff;dashed=0;verticalLabelPosition=bottom;verticalAlign=top;align=center;html=1;fontSize=12;fontStyle=0;aspect=fixed;shape=mxgraph.aws4.resourceIcon;resIcon=mxgraph.aws4.queue;" vertex="1" parent="1">
          <mxGeometry x="410" y="100" width="60" height="60" as="geometry" />
        </mxCell>
        <mxCell id="WpmN4PQ7mB17zB6UTpqO-24" value="Address.Queue" style="sketch=0;outlineConnect=0;fontColor=#232F3E;gradientColor=none;strokeColor=#232F3E;fillColor=#ffffff;dashed=0;verticalLabelPosition=bottom;verticalAlign=top;align=center;html=1;fontSize=12;fontStyle=0;aspect=fixed;shape=mxgraph.aws4.resourceIcon;resIcon=mxgraph.aws4.queue;" vertex="1" parent="1">
          <mxGeometry x="410" y="190" width="60" height="60" as="geometry" />
        </mxCell>
        <mxCell id="WpmN4PQ7mB17zB6UTpqO-33" style="edgeStyle=orthogonalEdgeStyle;rounded=0;orthogonalLoop=1;jettySize=auto;html=1;exitX=0.55;exitY=0.95;exitDx=0;exitDy=0;exitPerimeter=0;" edge="1" parent="1" source="WpmN4PQ7mB17zB6UTpqO-32" target="WpmN4PQ7mB17zB6UTpqO-2">
          <mxGeometry relative="1" as="geometry" />
        </mxCell>
        <mxCell id="WpmN4PQ7mB17zB6UTpqO-32" value="Avascan node &lt;br&gt;API" style="ellipse;shape=cloud;whiteSpace=wrap;html=1;" vertex="1" parent="1">
          <mxGeometry x="50" y="10" width="120" height="80" as="geometry" />
        </mxCell>
        <mxCell id="WpmN4PQ7mB17zB6UTpqO-34" value="Tx updater" style="rounded=0;whiteSpace=wrap;html=1;" vertex="1" parent="1">
          <mxGeometry x="620" y="100" width="130" height="60" as="geometry" />
        </mxCell>
        <mxCell id="WpmN4PQ7mB17zB6UTpqO-36" value="Address updater" style="rounded=0;whiteSpace=wrap;html=1;" vertex="1" parent="1">
          <mxGeometry x="620" y="190" width="130" height="60" as="geometry" />
        </mxCell>
        <mxCell id="WpmN4PQ7mB17zB6UTpqO-37" value="" style="shape=image;html=1;verticalAlign=top;verticalLabelPosition=bottom;labelBackgroundColor=#ffffff;imageAspect=0;aspect=fixed;image=https://cdn1.iconfinder.com/data/icons/ionicons-fill-vol-2/512/logo-docker-128.png" vertex="1" parent="1">
          <mxGeometry x="582" y="56" width="38" height="38" as="geometry" />
        </mxCell>
        <mxCell id="WpmN4PQ7mB17zB6UTpqO-41" value="" style="edgeStyle=orthogonalEdgeStyle;rounded=0;orthogonalLoop=1;jettySize=auto;html=1;entryX=0;entryY=0.5;entryDx=0;entryDy=0;" edge="1" parent="1" source="WpmN4PQ7mB17zB6UTpqO-24" target="WpmN4PQ7mB17zB6UTpqO-36">
          <mxGeometry relative="1" as="geometry">
            <mxPoint x="480" y="140" as="sourcePoint" />
            <mxPoint x="630" y="150" as="targetPoint" />
          </mxGeometry>
        </mxCell>
        <mxCell id="WpmN4PQ7mB17zB6UTpqO-42" value="Updaters" style="text;html=1;strokeColor=none;fillColor=none;align=left;verticalAlign=middle;whiteSpace=wrap;rounded=0;" vertex="1" parent="1">
          <mxGeometry x="620" y="40" width="110" height="30" as="geometry" />
        </mxCell>
        <mxCell id="WpmN4PQ7mB17zB6UTpqO-43" style="edgeStyle=orthogonalEdgeStyle;rounded=0;orthogonalLoop=1;jettySize=auto;html=1;exitX=0.5;exitY=1;exitDx=0;exitDy=0;entryX=1;entryY=0.5;entryDx=0;entryDy=0;entryPerimeter=0;" edge="1" parent="1" source="WpmN4PQ7mB17zB6UTpqO-39" target="WpmN4PQ7mB17zB6UTpqO-4">
          <mxGeometry relative="1" as="geometry">
            <mxPoint x="125" y="230" as="sourcePoint" />
            <mxPoint x="380" y="435" as="targetPoint" />
          </mxGeometry>
        </mxCell>
        <mxCell id="WpmN4PQ7mB17zB6UTpqO-44" value="+ Block/ Tx / Address" style="edgeLabel;html=1;align=center;verticalAlign=middle;resizable=0;points=[];" vertex="1" connectable="0" parent="WpmN4PQ7mB17zB6UTpqO-43">
          <mxGeometry x="-0.0647" y="2" relative="1" as="geometry">
            <mxPoint x="20" y="-87" as="offset" />
          </mxGeometry>
        </mxCell>
        <mxCell id="WpmN4PQ7mB17zB6UTpqO-45" value="Fastify API endpoints" style="rounded=0;whiteSpace=wrap;html=1;" vertex="1" parent="1">
          <mxGeometry x="352" y="640" width="146" height="85" as="geometry" />
        </mxCell>
        <mxCell id="WpmN4PQ7mB17zB6UTpqO-52" value="" style="edgeStyle=orthogonalEdgeStyle;rounded=0;orthogonalLoop=1;jettySize=auto;html=1;" edge="1" parent="1" source="WpmN4PQ7mB17zB6UTpqO-47" target="WpmN4PQ7mB17zB6UTpqO-48">
          <mxGeometry relative="1" as="geometry">
            <mxPoint x="520" y="310" as="targetPoint" />
          </mxGeometry>
        </mxCell>
        <mxCell id="WpmN4PQ7mB17zB6UTpqO-47" value="Block.Queue" style="sketch=0;outlineConnect=0;fontColor=#232F3E;gradientColor=none;strokeColor=#232F3E;fillColor=#ffffff;dashed=0;verticalLabelPosition=bottom;verticalAlign=top;align=center;html=1;fontSize=12;fontStyle=0;aspect=fixed;shape=mxgraph.aws4.resourceIcon;resIcon=mxgraph.aws4.queue;" vertex="1" parent="1">
          <mxGeometry x="410" y="280" width="60" height="60" as="geometry" />
        </mxCell>
        <mxCell id="WpmN4PQ7mB17zB6UTpqO-48" value="Block updater" style="rounded=0;whiteSpace=wrap;html=1;" vertex="1" parent="1">
          <mxGeometry x="620" y="280" width="130" height="60" as="geometry" />
        </mxCell>
        <mxCell id="WpmN4PQ7mB17zB6UTpqO-49" value="" style="edgeStyle=orthogonalEdgeStyle;rounded=0;orthogonalLoop=1;jettySize=auto;html=1;entryX=0.117;entryY=0.567;entryDx=0;entryDy=0;entryPerimeter=0;" edge="1" parent="1" source="WpmN4PQ7mB17zB6UTpqO-1" target="WpmN4PQ7mB17zB6UTpqO-47">
          <mxGeometry relative="1" as="geometry">
            <mxPoint x="320" y="200" as="sourcePoint" />
            <mxPoint x="420" y="230" as="targetPoint" />
            <Array as="points">
              <mxPoint x="360" y="190" />
              <mxPoint x="360" y="314" />
            </Array>
          </mxGeometry>
        </mxCell>
        <mxCell id="WpmN4PQ7mB17zB6UTpqO-50" value="key=block" style="edgeLabel;html=1;align=center;verticalAlign=middle;resizable=0;points=[];" vertex="1" connectable="0" parent="WpmN4PQ7mB17zB6UTpqO-49">
          <mxGeometry x="0.0462" y="-1" relative="1" as="geometry">
            <mxPoint as="offset" />
          </mxGeometry>
        </mxCell>
        <mxCell id="WpmN4PQ7mB17zB6UTpqO-57" style="edgeStyle=orthogonalEdgeStyle;rounded=0;orthogonalLoop=1;jettySize=auto;html=1;exitX=1;exitY=0.5;exitDx=0;exitDy=0;entryX=0.5;entryY=0.75;entryDx=0;entryDy=0;entryPerimeter=0;" edge="1" parent="1" source="WpmN4PQ7mB17zB6UTpqO-53" target="WpmN4PQ7mB17zB6UTpqO-1">
          <mxGeometry relative="1" as="geometry">
            <Array as="points">
              <mxPoint x="200" y="400" />
              <mxPoint x="200" y="330" />
              <mxPoint x="280" y="330" />
            </Array>
          </mxGeometry>
        </mxCell>
        <mxCell id="WpmN4PQ7mB17zB6UTpqO-62" value="" style="edgeStyle=orthogonalEdgeStyle;rounded=0;orthogonalLoop=1;jettySize=auto;html=1;" edge="1" parent="1" source="WpmN4PQ7mB17zB6UTpqO-53" target="WpmN4PQ7mB17zB6UTpqO-60">
          <mxGeometry relative="1" as="geometry" />
        </mxCell>
        <mxCell id="WpmN4PQ7mB17zB6UTpqO-53" value="Data consistency&lt;br&gt;worker&lt;br&gt;&lt;font color=&quot;#ff9933&quot;&gt;2s rate&lt;/font&gt;" style="rounded=0;whiteSpace=wrap;html=1;" vertex="1" parent="1">
          <mxGeometry x="50" y="370" width="130" height="60" as="geometry" />
        </mxCell>
        <mxCell id="WpmN4PQ7mB17zB6UTpqO-54" value="" style="shape=image;html=1;verticalAlign=top;verticalLabelPosition=bottom;labelBackgroundColor=#ffffff;imageAspect=0;aspect=fixed;image=https://cdn1.iconfinder.com/data/icons/ionicons-fill-vol-2/512/logo-docker-128.png" vertex="1" parent="1">
          <mxGeometry x="40" y="350" width="38" height="38" as="geometry" />
        </mxCell>
        <mxCell id="WpmN4PQ7mB17zB6UTpqO-55" style="edgeStyle=orthogonalEdgeStyle;rounded=0;orthogonalLoop=1;jettySize=auto;html=1;exitX=0.5;exitY=1;exitDx=0;exitDy=0;entryX=0;entryY=0.5;entryDx=0;entryDy=0;entryPerimeter=0;" edge="1" parent="1" source="WpmN4PQ7mB17zB6UTpqO-53" target="WpmN4PQ7mB17zB6UTpqO-4">
          <mxGeometry relative="1" as="geometry">
            <mxPoint x="695" y="400" as="sourcePoint" />
            <mxPoint x="475" y="555" as="targetPoint" />
          </mxGeometry>
        </mxCell>
        <mxCell id="WpmN4PQ7mB17zB6UTpqO-56" value="- old Block/ Tx / Address" style="edgeLabel;html=1;align=center;verticalAlign=middle;resizable=0;points=[];" vertex="1" connectable="0" parent="WpmN4PQ7mB17zB6UTpqO-55">
          <mxGeometry x="-0.0647" y="2" relative="1" as="geometry">
            <mxPoint x="13" y="-3" as="offset" />
          </mxGeometry>
        </mxCell>
        <mxCell id="WpmN4PQ7mB17zB6UTpqO-60" value="Redis cache&lt;br&gt;Initialization lock" style="outlineConnect=0;dashed=0;verticalLabelPosition=bottom;verticalAlign=top;align=center;html=1;shape=mxgraph.aws3.redis;fillColor=#2E73B8;gradientColor=none;" vertex="1" parent="1">
          <mxGeometry x="85" y="250" width="60" height="63" as="geometry" />
        </mxCell>
      </root>
    </mxGraphModel>
  </diagram>
</mxfile>
